<svg xmlns="http://www.w3.org/2000/svg" width="1440" height="780" viewBox="0 0 1440 780" role="img" aria-labelledby="title desc">
  <title id="title">MCPJungle Tool Invocation Pipeline</title>
  <desc id="desc">MCPJungle authenticates client tokens, resolves allow-lists, canonicalizes tools, proxies upstream MCP calls, and records metrics.</desc>
  <defs>
    <linearGradient id="bg" x1="0" x2="1">
      <stop stop-color="#020617"/>
      <stop offset="1" stop-color="#111827"/>
    </linearGradient>
    <linearGradient id="card" x1="0" x2="1">
      <stop stop-color="#172033"/>
      <stop offset="1" stop-color="#0f172a"/>
    </linearGradient>
    <linearGradient id="accent" x1="0" x2="1">
      <stop stop-color="#38bdf8"/>
      <stop offset="1" stop-color="#a855f7"/>
    </linearGradient>
  </defs>
  <rect width="1440" height="780" fill="url(#bg)"/>
  <circle cx="1160" cy="110" r="260" fill="#2563eb" opacity=".13"/>
  <circle cx="210" cy="660" r="260" fill="#a855f7" opacity=".12"/>
  <text x="76" y="86" fill="#f8fafc" font-family="Inter, Arial, sans-serif" font-size="42" font-weight="800">Tool calls through one governed path</text>
  <text x="78" y="126" fill="#cbd5e1" font-family="Inter, Arial, sans-serif" font-size="20">The proxy path stays stable while access and upstream selection remain centralized.</text>

  <g transform="translate(88 218)">
    <rect width="190" height="230" rx="24" fill="url(#card)" stroke="#334155" stroke-width="2"/>
    <text x="28" y="56" fill="#38bdf8" font-family="JetBrains Mono, monospace" font-size="17">01</text>
    <text x="28" y="94" fill="#f8fafc" font-family="Inter, Arial, sans-serif" font-size="24" font-weight="800">Token</text>
    <text x="28" y="132" fill="#cbd5e1" font-family="Inter, Arial, sans-serif" font-size="16">Client auth</text>
    <text x="28" y="162" fill="#94a3b8" font-family="JetBrains Mono, monospace" font-size="14">Bearer ...</text>
  </g>
  <g transform="translate(316 218)">
    <rect width="190" height="230" rx="24" fill="url(#card)" stroke="#334155" stroke-width="2"/>
    <text x="28" y="56" fill="#38bdf8" font-family="JetBrains Mono, monospace" font-size="17">02</text>
    <text x="28" y="94" fill="#f8fafc" font-family="Inter, Arial, sans-serif" font-size="24" font-weight="800">Scope</text>
    <text x="28" y="132" fill="#cbd5e1" font-family="Inter, Arial, sans-serif" font-size="16">User/group</text>
    <text x="28" y="162" fill="#cbd5e1" font-family="Inter, Arial, sans-serif" font-size="16">allow-list</text>
  </g>
  <g transform="translate(544 218)">
    <rect width="190" height="230" rx="24" fill="url(#card)" stroke="#334155" stroke-width="2"/>
    <text x="28" y="56" fill="#38bdf8" font-family="JetBrains Mono, monospace" font-size="17">03</text>
    <text x="28" y="94" fill="#f8fafc" font-family="Inter, Arial, sans-serif" font-size="24" font-weight="800">Name</text>
    <text x="28" y="132" fill="#cbd5e1" font-family="Inter, Arial, sans-serif" font-size="16">Canonical</text>
    <text x="28" y="162" fill="#94a3b8" font-family="JetBrains Mono, monospace" font-size="14">server__tool</text>
  </g>
  <g transform="translate(772 218)">
    <rect width="190" height="230" rx="24" fill="url(#card)" stroke="#334155" stroke-width="2"/>
    <text x="28" y="56" fill="#38bdf8" font-family="JetBrains Mono, monospace" font-size="17">04</text>
    <text x="28" y="94" fill="#f8fafc" font-family="Inter, Arial, sans-serif" font-size="24" font-weight="800">Proxy</text>
    <text x="28" y="132" fill="#cbd5e1" font-family="Inter, Arial, sans-serif" font-size="16">stdio / HTTP</text>
    <text x="28" y="162" fill="#cbd5e1" font-family="Inter, Arial, sans-serif" font-size="16">session mode</text>
  </g>
  <g transform="translate(1000 218)">
    <rect width="190" height="230" rx="24" fill="url(#card)" stroke="#334155" stroke-width="2"/>
    <text x="28" y="56" fill="#38bdf8" font-family="JetBrains Mono, monospace" font-size="17">05</text>
    <text x="28" y="94" fill="#f8fafc" font-family="Inter, Arial, sans-serif" font-size="24" font-weight="800">Observe</text>
    <text x="28" y="132" fill="#cbd5e1" font-family="Inter, Arial, sans-serif" font-size="16">Metrics</text>
    <text x="28" y="162" fill="#cbd5e1" font-family="Inter, Arial, sans-serif" font-size="16">Logs / traces</text>
  </g>
  <g fill="none" stroke="url(#accent)" stroke-linecap="round" stroke-width="5">
    <path d="M278 333h38M506 333h38M734 333h38M962 333h38"/>
  </g>
  <g fill="#38bdf8">
    <path d="m310 320 22 13-22 13z"/>
    <path d="m538 320 22 13-22 13z"/>
    <path d="m766 320 22 13-22 13z"/>
    <path d="m994 320 22 13-22 13z"/>
  </g>
  <rect x="218" y="560" width="1004" height="94" rx="22" fill="#020617" stroke="#38bdf8" stroke-opacity=".32" stroke-width="2"/>
  <text x="274" y="616" fill="#dbeafe" font-family="JetBrains Mono, monospace" font-size="22">context7__get-library-docs · filesystem__read_file · github__search</text>
</svg>
